<svg width="200" height="200" viewBox="0 0 200 200" fill="none" xmlns="http://www.w3.org/2000/svg">
<g clip-path="url(#clip0_273_5)">
<path d="M109.951 60.2097C113.871 61.7297 117.171 64.7297 119.321 69.1197C121.021 72.5997 122.011 76.9297 122.011 82.1097V84.7097C122.011 88.3697 122.011 95.4497 122.031 102.98C122.031 109.37 122.041 116.07 122.041 121.25C122.041 125.83 122.041 129.22 122.041 130.16C122.041 132.87 122.061 136.49 121.481 140.09C120.781 144.51 119.201 148.92 115.591 151.64C115.591 151.64 121.121 151.64 128.201 151.64C133.981 151.64 140.791 151.64 146.471 151.64C152.111 151.64 156.631 151.64 157.891 151.64C155.621 149.93 154.161 147.54 153.201 144.91C151.401 139.94 151.441 134.09 151.441 130.16V86.1797C151.441 82.0097 151.071 78.1497 150.361 74.6097C149.351 69.4997 147.631 65.0797 145.311 61.3797C142.891 57.5297 139.801 54.4697 136.151 52.2497C132.101 49.7897 127.361 48.3697 122.061 48.0497C121.301 47.9997 120.541 47.9697 119.761 47.9697C110.621 47.9697 99.5009 52.8697 91.8809 59.9397C91.1109 60.6497 90.3709 61.3797 89.6809 62.1397C88.4809 63.4497 87.3809 64.8197 86.4609 66.2397C94.3009 59.3797 103.061 57.5197 109.921 60.1797" fill="#26395B"/>
<path d="M81.43 143.57C80.31 138.92 80.05 133.42 80.05 130.16V72.75C80.05 72.44 80.03 72.15 80.02 71.84C79.9 65.74 78.59 60.98 76.03 57.54C73.42 54.02 69.51 51.86 64.29 51C62.53 50.71 60.64 50.54 58.58 50.54H42C43.15 50.88 44.16 51.37 45.05 51.96C48.98 54.6 50.57 59.44 50.57 63.43V130.15C50.57 132.19 50.54 135.12 50.26 138.16C49.72 144.08 48.22 150.44 44.15 151.63H86.48C83.94 150.8 82.38 147.48 81.43 143.56" fill="#26395B"/>
</g>
<defs>
<clipPath id="clip0_273_5">
<rect width="115.9" height="103.67" fill="white" transform="translate(42 48)"/>
</clipPath>
</defs>
</svg>
