<svg width="1211" height="350" viewBox="0 0 1211 350" fill="none" xmlns="http://www.w3.org/2000/svg">
<path d="M1107.28 237.274C1097.25 238.581 1084.83 238.145 1069.58 235.095C1069.15 235.095 1068.93 234.877 1068.49 234.877C1068.71 235.095 1069.15 235.095 1069.36 235.313C1078.95 239.452 1089.41 242.721 1099.87 244.681C1112.5 247.078 1125.14 247.732 1137.56 246.86C1175.25 244.246 1207.28 226.379 1207.28 192.826C1207.28 187.814 1206.85 183.021 1205.76 178.445C1203.58 168.205 1199 159.272 1192.47 151.864C1186.37 144.674 1178.74 138.791 1170.24 134.215C1161.31 129.422 1151.29 125.936 1141.05 123.539C1131.46 121.36 1121.66 120.489 1112.07 120.271C1119.69 121.578 1126.88 125.5 1132.99 131.601C1139.09 137.919 1143.88 146.635 1146.93 157.529C1148.89 165.155 1150.2 173.652 1150.2 183.239C1150.2 186.289 1149.98 190.429 1149.33 195.004C1146.93 211.128 1138.21 232.916 1107.28 237.274Z" fill="#26395B"/>
<path d="M1007.27 297.626C1012.5 305.688 1018.6 312.878 1025.57 319.196C1032.76 325.733 1040.6 330.962 1049.1 335.537C1058.25 340.331 1068.06 343.817 1078.3 346.214C1088.1 348.61 1098.12 349.7 1107.93 349.7C1110.11 349.7 1112.5 349.7 1114.68 349.7C1132.99 349.046 1149.76 345.996 1164.58 339.677C1184.84 330.962 1200.96 316.582 1210.77 295.011C1205.98 300.241 1201.18 304.598 1195.95 308.302C1174.6 323.336 1151.51 324.643 1139.74 324.643C1139.09 324.643 1138.43 324.643 1137.78 324.643C1125.8 324.643 1115.12 322.465 1105.97 318.761C1096.82 315.057 1088.76 309.61 1082 302.855C1075.25 296.101 1070.02 288.257 1065.66 279.324C1061.3 269.955 1058.25 259.715 1056.51 248.603C1055.42 241.63 1054.77 234.658 1054.77 227.25C1054.77 221.367 1054.98 215.485 1055.42 209.82C1056.94 190.21 1061.08 172.78 1066.97 158.4C1075.03 138.79 1086.36 125.282 1097.69 120.706C1081.78 121.795 1066.1 126.371 1051.72 133.779C1031.02 144.455 1013.15 161.232 1002.26 183.238C994.848 198.272 990.491 215.485 990.491 234.876C990.491 235.094 990.491 235.094 990.491 235.312C990.491 247.949 992.234 259.497 995.284 269.955C997.681 280.196 1002.04 289.347 1007.27 297.626Z" fill="#26395B"/>
<path d="M599.175 135.087L615.298 118.963C620.092 116.349 625.103 114.388 630.332 113.516H620.745H591.767C591.767 109.812 591.767 106.326 591.767 102.622C591.767 89.1136 591.767 75.605 591.767 62.7499C591.767 48.5876 591.767 35.079 591.767 22.8776V0C590.895 10.0226 589.152 19.3915 586.974 27.8889C580.001 54.4704 567.146 74.7334 552.113 88.8958C538.604 101.751 523.352 109.812 508.972 113.516C517.469 115.913 522.698 122.232 525.313 129.204C526.838 133.344 527.71 137.701 527.71 141.623V166.68V206.552V246.424V254.05C527.71 265.162 528.581 274.967 530.324 283.682C532.721 295.23 536.425 304.599 541.654 312.225C547.319 320.504 554.509 326.605 563.007 330.745C572.593 335.32 583.705 337.499 596.125 337.499C596.343 337.499 596.56 337.499 596.56 337.499C622.053 337.499 654.517 320.068 669.115 297.626C654.299 310.699 636.215 315.929 621.181 312.225C611.812 310.046 603.75 304.381 598.303 295.23C594.164 288.04 591.549 278.453 591.549 266.687C591.549 266.034 591.549 264.508 591.549 262.112C591.549 254.486 591.549 238.798 591.549 222.239C591.549 208.077 591.549 193.261 591.549 182.367C591.549 180.406 591.549 178.445 591.549 176.702C591.549 162.54 592.203 152.735 594.817 144.456C596.342 140.969 597.65 137.919 599.175 135.087Z" fill="#26395B"/>
<path d="M907.913 208.078C903.338 198.491 898.98 189.122 895.058 181.06C889.393 169.295 885.472 160.58 885.036 159.926C884.164 157.965 883.293 155.786 882.421 154.043C873.488 132.255 876.103 118.746 892.444 112.646H883.946H844.074H804.42H774.788C781.106 114.606 786.989 118.964 792.218 124.629C798.537 131.383 803.984 140.099 808.559 148.16C811.174 152.736 813.353 157.311 815.096 161.233C815.314 161.669 817.71 166.68 821.632 174.96C824.9 181.932 829.476 191.301 834.487 201.977C838.409 210.474 842.767 219.625 847.342 228.994C851.482 237.928 855.84 247.079 860.197 256.012C864.555 265.381 868.913 274.532 873.052 283.029C877.846 293.052 882.203 302.421 885.907 310.046C892.444 323.773 896.583 332.706 896.583 332.706L926.215 269.738L931.662 257.973C931.662 257.973 927.087 248.386 920.768 235.095C916.846 227.033 912.489 217.665 907.913 208.078Z" fill="#26395B"/>
<path d="M963.909 112.427H940.595C946.696 113.299 951.925 115.913 956.283 120.053C962.819 126.154 966.959 135.741 968.484 147.724C970.009 159.272 968.92 172.998 964.562 187.814C968.702 178.228 979.596 157.747 981.339 154.696C993.759 132.908 1008.79 114.388 1028.4 112.645H1003.56H963.909V112.427Z" fill="#26395B"/>
<path d="M686.981 42.2696C686.981 52.728 691.121 62.0969 697.657 69.0691C704.63 76.4771 714.434 81.0526 725.546 81.0526H725.764C747.117 81.0526 764.547 63.6221 764.547 42.2696V42.0518C764.547 31.1577 759.754 21.353 752.564 14.3808C745.591 7.84434 736.222 3.70459 725.764 3.70459C724.893 3.70459 724.021 3.70459 723.367 3.92247C703.976 5.22976 688.289 20.6994 687.199 40.0908C686.981 40.5266 686.981 41.3981 686.981 42.2696Z" fill="#26395B"/>
<path d="M695.043 191.082V230.955V270.827V287.168C695.043 293.269 694.825 303.292 693.3 312.225C691.557 322.465 688.071 331.834 680.881 333.795H711.384H751.256H773.045C768.687 332.27 765.637 327.476 763.458 321.376C759.754 310.482 758.882 295.23 758.882 286.95V286.079V246.207V206.552V166.68V161.886C758.882 149.903 756.921 140.316 752.781 132.908C747.988 124.193 740.58 118.528 730.122 115.695C724.893 114.17 719.01 113.517 712.256 113.517H692.646H676.087C680.227 114.824 683.713 117.003 686.328 119.617C692.21 125.5 694.607 134.215 694.607 141.623V151.21V191.082H695.043Z" fill="#26395B"/>
<path d="M148.16 136.394C156.657 139.662 163.847 146.198 168.641 155.785C172.345 163.411 174.523 172.78 174.523 184.11C174.523 184.11 174.523 186.289 174.523 189.775C174.523 197.836 174.523 213.088 174.523 229.647C174.523 243.591 174.523 258.189 174.523 269.519C174.523 279.542 174.523 286.95 174.523 288.911C174.523 294.794 174.523 302.637 173.216 310.481C171.691 320.068 168.205 329.655 160.361 335.755C160.361 335.755 172.345 335.755 187.814 335.755C200.451 335.755 215.267 335.755 227.687 335.755C239.888 335.755 249.91 335.755 252.525 335.755C247.514 332.051 244.463 326.822 242.285 321.157C238.363 310.263 238.363 297.626 238.363 289.129V284.989V245.117V205.244V193.043C238.363 183.892 237.491 175.612 235.966 167.769C233.787 156.657 230.083 147.07 224.854 139.008C219.625 130.729 212.871 123.974 204.809 119.181C196.094 113.734 185.635 110.684 174.088 110.03C172.345 110.03 170.819 109.812 169.076 109.812C149.249 109.812 124.846 120.488 108.287 135.958C106.544 137.483 105.019 139.008 103.494 140.751C100.879 143.584 98.4827 146.634 96.5217 149.684C114.17 134.651 133.126 130.511 148.16 136.394Z" fill="#26395B"/>
<path d="M86.0633 317.889C83.6666 307.867 83.013 295.883 83.013 288.693V281.067V241.195V201.323V163.629C83.013 162.975 83.013 162.322 83.013 161.668C82.7951 148.377 79.9626 137.919 74.2977 130.511C68.6328 122.885 60.1354 118.092 48.8055 116.349C44.8836 115.695 40.7439 115.259 36.3863 115.259H9.80468H0C2.3967 115.913 4.7934 117.002 6.75434 118.31C15.2517 123.975 18.7378 134.651 18.7378 143.366V146.198V186.071V225.943V265.816V288.911C18.7378 293.269 18.7378 299.805 18.0842 306.342C16.9948 319.197 13.7266 333.141 4.7934 335.756H28.5425H68.4149H96.9574C91.5103 333.795 88.0242 326.387 86.0633 317.889Z" fill="#26395B"/>
<path d="M288.911 321.157C296.319 327.04 305.253 331.398 315.711 334.23C323.772 336.409 332.706 337.499 342.51 337.499C345.996 337.499 349.483 337.281 352.751 337.063C371.706 335.538 389.355 330.526 398.288 324.861C387.394 326.387 376.718 325.297 367.349 322.247C357.762 319.196 349.483 313.967 342.946 306.777C336.41 299.587 331.834 290.436 330.091 279.76C329.655 276.71 329.437 273.659 329.437 270.391C329.437 243.809 350.572 215.703 398.288 207.859C384.126 207.859 371.489 208.73 359.941 210.256C335.756 213.306 317.018 219.407 303.074 227.25C287.168 236.183 277.364 247.078 272.352 257.972C269.52 264.29 268.213 270.609 268.213 276.709C268.213 284.553 269.52 291.743 272.135 298.28C275.621 307.213 281.286 315.057 288.911 321.157Z" fill="#26395B"/>
<path d="M415.936 115.913C420.947 120.924 423.562 128.55 423.562 144.891V146.852C423.562 157.528 423.562 171.691 423.562 186.725C423.562 199.798 423.562 213.524 423.562 226.597C423.562 241.413 423.562 255.575 423.562 266.469C423.562 277.146 423.562 284.771 423.562 287.386C423.562 292.833 423.562 299.805 422.69 307.213C421.383 317.454 417.897 327.912 409.617 334.231C412.45 334.231 422.69 334.231 435.545 334.231C447.965 334.231 462.999 334.231 475.418 334.231C490.452 334.231 501.781 334.231 501.781 334.231C496.552 330.309 493.284 324.644 491.105 318.325C487.619 307.649 487.619 295.666 487.619 287.386C487.619 286.297 487.619 284.336 487.619 281.939C487.619 274.095 487.619 259.715 487.619 242.067C487.619 229.865 487.619 216.357 487.619 202.194V181.713C487.619 175.177 487.401 169.076 486.748 163.193C485.44 152.953 482.172 143.802 474.982 135.087C473.675 133.561 472.367 132.036 470.842 130.511C465.831 125.5 459.512 121.36 452.322 118.092C443.171 113.952 432.495 111.12 421.165 109.377C414.629 108.505 407.657 108.069 400.684 108.069C405.478 109.159 410.489 110.902 415.282 115.259C415.5 115.477 415.718 115.695 415.936 115.913Z" fill="#26395B"/>
<path d="M299.587 191.082C305.47 195.875 313.096 198.49 321.158 198.49C325.951 198.49 330.527 197.618 334.449 195.875C342.074 192.607 347.957 186.724 351.008 179.316C352.533 175.612 353.404 171.472 353.404 166.897C353.404 157.746 350.354 150.12 345.343 145.109C341.421 140.969 336.192 138.572 330.309 137.701C330.309 122.885 355.801 108.94 379.332 107.851C366.477 107.415 351.879 108.723 338.153 112.427C310.917 119.617 287.168 135.522 287.168 163.193V163.411C287.386 175.394 292.179 184.981 299.587 191.082Z" fill="#26395B"/>
</svg>
