<svg width="48" height="48" viewBox="0 0 48 48" fill="none" xmlns="http://www.w3.org/2000/svg">
<path d="M28.4344 6.9993C25.5924 5.6669 22.4074 5.6669 19.5654 6.9993L6.18321 13.2732C4.03121 14.2821 3.47013 17.127 4.5 19.0933L4.5 29C4.5 29.8284 5.17157 30.5 6 30.5C6.82843 30.5 7.5 29.8284 7.5 29V21.3441L19.5656 27.0007C22.4076 28.3331 25.5926 28.3331 28.4346 27.0007L41.8168 20.7268C44.7277 19.3621 44.7277 14.638 41.8168 13.2733L28.4344 6.9993Z" fill="#2A3858"/>
<path opacity="0.5" d="M10 22.5166L19.5656 27.0012C22.4076 28.3336 25.5926 28.3336 28.4346 27.0012L38 22.5167V33.251C38 35.267 36.993 37.1545 35.2293 38.1313C32.2926 39.7576 27.592 42.0001 24 42.0001C20.408 42.0001 15.7074 39.7576 12.7707 38.1313C11.007 37.1545 10 35.267 10 33.251V22.5166Z" fill="#2A3858"/>
</svg>
