<svg width="48" height="48" viewBox="0 0 48 48" fill="none" xmlns="http://www.w3.org/2000/svg">
<path fill-rule="evenodd" clip-rule="evenodd" d="M21.1625 4.50001L21.1217 4.5C20.8946 4.49997 20.7179 4.49994 20.5508 4.51007C18.4299 4.63851 16.5727 5.9771 15.7802 7.94851C15.7174 8.10477 15.614 8.41512 15.5402 8.6365L15.5325 8.65978C15.3263 9.21962 14.9539 9.70447 14.5229 10.0507C14.0679 10.0654 13.6334 10.0844 13.2181 10.1089C9.93014 10.3029 7.84362 10.8424 6.34291 12.3432C5.85358 12.8325 5.46645 13.3841 5.16016 14.0193C5.27531 14.0586 5.38751 14.1126 5.49418 14.182C9.69476 16.9123 12.3339 18.6202 14.5269 19.7157C14.6598 19.0233 15.2688 18.5002 15.9999 18.5002C16.8284 18.5002 17.4999 19.1718 17.4999 20.0002V20.916C21.7388 22.1951 26.261 22.1952 30.4999 20.9161V20.0002C30.4999 19.1718 31.1715 18.5002 31.9999 18.5002C32.7312 18.5002 33.3402 19.0234 33.473 19.7159C35.666 18.6203 38.3053 16.9125 42.506 14.182C42.6125 14.1128 42.7245 14.0588 42.8395 14.0195C42.5332 13.3842 42.146 12.8325 41.6566 12.3432C40.1559 10.8424 38.0694 10.3029 34.7815 10.1089C34.3872 10.0856 33.9756 10.0673 33.5457 10.053C33.5186 10.0309 33.4914 10.0081 33.4642 9.98463C32.9827 9.56871 32.6063 9.02022 32.4166 8.50577L32.4103 8.48689C32.3386 8.27153 32.2827 8.10389 32.2202 7.94851C31.4277 5.9771 29.5705 4.63851 27.4497 4.51007C27.2825 4.49994 27.1058 4.49997 26.8788 4.5L21.1625 4.50001ZM29.635 9.63138L29.6259 9.60991L29.6162 9.58572L29.6071 9.56183L29.5998 9.54194L29.5962 9.53193L29.5878 9.50746L29.5801 9.48487L29.5759 9.47234L29.5705 9.45566L29.566 9.44157L29.5625 9.4302C29.4837 9.19416 29.4595 9.12408 29.4368 9.06751C29.0765 8.17141 28.2323 7.56296 27.2683 7.50458C27.2038 7.50067 27.1247 7.50001 26.8379 7.50001H21.1625C20.8757 7.50001 20.7966 7.50067 20.7321 7.50458C19.7682 7.56296 18.9242 8.17122 18.5638 9.06708L18.5586 9.08105L18.5426 9.12489C18.5294 9.16209 18.5132 9.20858 18.4946 9.26313C18.4615 9.35988 18.4244 9.47091 18.3868 9.58372L18.3831 9.59554L18.3787 9.60961L18.3732 9.62629L18.369 9.63882L18.3613 9.66142L18.3529 9.6859L18.3493 9.69592L18.342 9.71582L18.3329 9.73974L18.3231 9.76399L18.3148 9.7838L18.3135 9.78672C18.2856 9.85842 18.2561 9.92997 18.225 10.0013C18.7923 10 19.3834 10 19.9998 10H27.9998C28.6227 10 29.22 10 29.7928 10.0013C29.7358 9.87911 29.6832 9.75569 29.635 9.63138Z" fill="white"/>
<path opacity="0.5" d="M4.32416 17C4 19.2075 4 22.0997 4 26.0006C4 33.5431 4 37.3143 6.34315 39.6575C8.68629 42.0006 12.4575 42.0006 20 42.0006H28C35.5425 42.0006 39.3137 42.0006 41.6569 39.6575C44 37.3143 44 33.5431 44 26.0006C44 22.0999 44 19.2079 43.6759 17.0004C39.1226 19.9601 36.2042 21.8476 33.5002 23.0099V24.0008C33.5002 24.8292 32.8286 25.5008 32.0002 25.5008C31.1827 25.5008 30.518 24.8469 30.5005 24.0336C26.24 25.1568 21.7604 25.1568 17.4998 24.0335C17.4824 24.8469 16.8177 25.5008 16.0002 25.5008C15.1717 25.5008 14.5002 24.8292 14.5002 24.0008V23.0098C11.7961 21.8474 8.87762 19.9598 4.32416 17Z" fill="white"/>
</svg>
