<svg width="64" height="64" viewBox="0 0 64 64" fill="none" xmlns="http://www.w3.org/2000/svg">
<path opacity="0.5" fill-rule="evenodd" clip-rule="evenodd" d="M52.4995 37.5824L52.9885 33.0366C53.2493 30.6112 53.4216 29.0096 53.2864 28.0006C52.0954 27.9868 51.0295 27.4525 50.3056 26.6145C49.4361 27.1511 48.2994 28.2835 46.5883 29.9879C45.2701 31.3009 44.6111 31.9575 43.8758 32.0591C43.4684 32.1155 43.0533 32.0576 42.6771 31.8919C41.9982 31.5929 41.5455 30.7813 40.6402 29.158L35.8682 20.6019C35.3096 19.6004 34.8423 18.7624 34.4208 18.0879C33.6944 18.4585 32.8718 18.6675 32.0003 18.6675C31.1289 18.6675 30.3063 18.4585 29.5799 18.0879C29.1584 18.7624 28.691 19.6004 28.1325 20.6019L23.3605 29.1581C22.4551 30.7813 22.0025 31.5929 21.3235 31.8919C20.9474 32.0576 20.5323 32.1155 20.1249 32.0591C19.3896 31.9575 18.7305 31.3009 17.4123 29.9879C15.7012 28.2835 14.5645 27.1511 13.6951 26.6145C12.9711 27.4525 11.9052 27.9868 10.7142 28.0006C10.579 29.0096 10.7513 30.6112 11.0122 33.0366L11.5011 37.5824C11.5837 38.3498 11.662 39.1059 11.7388 39.8474C12.4116 46.3429 12.9681 51.7157 15.2325 53.7426C17.7554 56.0008 21.5367 56.0008 29.0992 56.0008H34.9015C42.464 56.0008 46.2452 56.0008 48.7681 53.7426C51.0325 51.7157 51.5891 46.3429 52.2618 39.8475C52.3386 39.106 52.417 38.3498 52.4995 37.5824Z" fill="#F8FBFD"/>
<path d="M53.3337 28C55.5428 28 57.3337 26.2091 57.3337 24C57.3337 21.7909 55.5428 20 53.3337 20C51.1245 20 49.3337 21.7909 49.3337 24C49.3337 24.9991 49.7 25.9126 50.3056 26.6137C51.0295 27.4516 52.0954 27.9859 53.2864 27.9997L53.3337 28Z" fill="#F8FBFD"/>
<path d="M32.0003 8C29.0548 8 26.667 10.3878 26.667 13.3333C26.667 15.4074 27.8509 17.205 29.5799 18.0871C30.3063 18.4577 31.1289 18.6667 32.0003 18.6667C32.8718 18.6667 33.6944 18.4577 34.4208 18.0871C36.1497 17.205 37.3337 15.4074 37.3337 13.3333C37.3337 10.3878 34.9458 8 32.0003 8Z" fill="#F8FBFD"/>
<path d="M6.66699 24C6.66699 26.2091 8.45785 28 10.667 28L10.7142 27.9997C11.9052 27.9859 12.9711 27.4516 13.6951 26.6137C14.3007 25.9126 14.667 24.9991 14.667 24C14.667 21.7909 12.8761 20 10.667 20C8.45785 20 6.66699 21.7909 6.66699 24Z" fill="#F8FBFD"/>
<path d="M12.9306 48.668C12.6693 47.4671 12.4604 46.1219 12.2744 44.668H51.7257C51.5398 46.1219 51.3308 47.4671 51.0695 48.668H12.9306Z" fill="#F8FBFD"/>
</svg>
