<svg width="56" height="56" viewBox="0 0 56 56" fill="none" xmlns="http://www.w3.org/2000/svg">
<path opacity="0.5" d="M11.0335 37.6521C7.42721 34.0458 5.62409 32.2427 4.95315 29.9033C4.28221 27.5639 4.8556 25.0792 6.00239 20.1098L6.66372 17.244C7.62851 13.0632 8.11091 10.9728 9.54236 9.54139C10.9738 8.10994 13.0642 7.62754 17.245 6.66274L20.1107 6.00141C25.0801 4.85463 27.5648 4.28124 29.9043 4.95217C32.2437 5.62311 34.0468 7.42623 37.6531 11.0325L41.9222 15.3016C48.1965 21.5759 51.3337 24.7131 51.3337 28.6114C51.3337 32.5098 48.1965 35.6469 41.9222 41.9212C35.6479 48.1955 32.5108 51.3327 28.6124 51.3327C24.7141 51.3327 21.5769 48.1955 15.3026 41.9212L11.0335 37.6521Z" fill="#5FA9C0"/>
<path d="M23.6211 16.9662C25.4588 18.8039 25.4588 21.7834 23.6211 23.6211C21.7834 25.4588 18.8039 25.4588 16.9662 23.6211C15.1285 21.7834 15.1285 18.8039 16.9662 16.9662C18.8039 15.1285 21.7834 15.1285 23.6211 16.9662Z" fill="#5FA9C0"/>
<path d="M44.4524 28.1197L28.168 44.4046C27.4846 45.0881 26.3766 45.0881 25.6931 44.4047C25.0097 43.7213 25.0097 42.6132 25.6931 41.9298L41.9774 25.6449C42.6609 24.9615 43.7689 24.9614 44.4523 25.6449C45.1358 26.3283 45.1358 27.4363 44.4524 28.1197Z" fill="#5FA9C0"/>
</svg>
